<svg version="1.1" id="Layer_1" xmlns="http://www.w3.org/2000/svg" xmlns:xlink="http://www.w3.org/1999/xlink" x="0px" y="0px"
	 width="100%" viewBox="0 0 1212 230" enable-background="new 0 0 1212 230" xml:space="preserve">
<path fill="#000000" opacity="1.000000" stroke="none" 
	d="
M900.000000,231.000000 
	C600.000000,231.000000 300.500000,231.000000 1.000000,231.000000 
	C1.000000,154.333328 1.000000,77.666664 1.000000,1.000000 
	C405.000000,1.000000 809.000000,1.000000 1213.000000,1.000000 
	C1213.000000,77.666664 1213.000000,154.333328 1213.000000,231.000000 
	C1108.833374,231.000000 1004.666687,231.000000 900.000000,231.000000 
M751.497742,201.002991 
	C754.996277,201.000305 758.495300,201.032593 761.993286,200.987274 
	C768.285095,200.905777 768.948975,200.308807 768.975403,194.118622 
	C769.030884,181.124069 769.607422,168.091522 768.807739,155.146362 
	C768.172791,144.868591 776.451660,141.475418 781.188477,134.281708 
	C782.867676,136.730988 783.955872,138.163025 784.882202,139.693024 
	C796.348572,158.632141 807.688538,177.649506 819.382385,196.446808 
	C820.706665,198.575455 823.966553,200.720917 826.367615,200.765457 
	C845.519897,201.120789 864.681763,201.021698 883.840088,200.938446 
	C888.338135,200.918900 888.927246,199.694672 886.511414,195.873016 
	C880.730042,186.727478 874.887268,177.620331 869.012939,168.534134 
	C854.191101,145.607956 839.385071,122.671204 824.446167,99.821426 
	C822.251465,96.464462 822.274048,94.123123 825.226501,91.166748 
	C834.634216,81.746361 843.783508,72.067642 853.019714,62.476227 
	C861.331604,53.844723 869.664368,45.232567 877.879150,36.509380 
	C878.877380,35.449333 879.199097,33.752136 879.834290,32.350208 
	C878.477539,31.909666 877.122375,31.091454 875.763733,31.085602 
	C857.271729,31.005962 838.778625,30.969858 820.287903,31.146307 
	C818.351868,31.164782 815.853333,32.077709 814.589172,33.463566 
	C801.029358,48.328213 787.663818,63.370071 774.251099,78.368759 
	C772.992615,79.776047 771.774902,81.219795 770.538269,82.646622 
	C769.237671,80.373650 769.022522,78.468895 769.017456,76.563576 
	C768.983032,63.568897 768.888245,50.572849 769.044434,37.580025 
	C769.099731,32.981159 767.531311,30.898045 762.686340,30.954922 
	C748.194214,31.125053 733.698059,31.101284 719.205200,30.967340 
	C714.725037,30.925936 712.898254,32.693752 712.967712,37.189022 
	C713.122314,47.182484 713.001160,57.180141 713.000854,67.176086 
	C712.999512,108.992577 712.994690,150.809067 713.007629,192.625565 
	C713.010132,200.744171 713.266418,200.980194 721.510437,200.996857 
	C731.173218,201.016373 740.835999,201.002426 751.497742,201.002991 
M996.500000,135.002869 
	C1007.163635,134.998550 1017.829407,134.869751 1028.489990,135.047440 
	C1033.155640,135.125198 1035.173218,133.402054 1035.042969,128.617233 
	C1034.834473,120.958519 1034.999634,113.289749 1034.998901,105.625229 
	C1034.997925,95.005997 1034.994751,95.004662 1024.235596,95.000549 
	C1006.573853,94.993790 988.911682,94.918121 971.250732,95.032867 
	C966.808289,95.061729 964.754944,93.388985 964.986877,88.853218 
	C965.156799,85.529785 964.989380,82.190071 965.010559,78.857864 
	C965.057800,71.403366 965.421692,71.018608 973.036499,71.009949 
	C995.530212,70.984390 1018.024353,70.920952 1040.517334,71.044449 
	C1045.205078,71.070183 1047.147705,69.344673 1047.043457,64.586945 
	C1046.842773,55.427231 1046.863892,46.257919 1047.030884,37.096916 
	C1047.114258,32.520672 1045.098877,30.961840 1040.701538,30.969940 
	C998.546814,31.047617 956.391846,31.049116 914.237061,30.969465 
	C909.787170,30.961058 907.895874,32.630077 907.966797,37.155102 
	C908.123291,47.149750 908.000610,57.148697 908.000549,67.145889 
	C908.000244,109.300835 908.025757,151.455811 907.970398,193.610687 
	C907.964722,197.907257 908.404602,201.058731 914.000854,201.044357 
	C957.654968,200.932205 1001.309631,200.949341 1044.963867,201.031540 
	C1049.585815,201.040253 1051.114746,198.995514 1051.031738,194.644623 
	C1050.876099,186.483307 1051.005493,178.316742 1050.996704,170.152374 
	C1050.986938,161.022888 1050.977051,161.008362 1041.761841,161.003693 
	C1018.434998,160.991898 995.108154,161.018997 971.781433,160.973511 
	C965.773865,160.961792 965.112732,160.261368 965.027771,154.386139 
	C964.962646,149.888428 965.139648,145.385040 964.990967,140.891373 
	C964.848755,136.591782 966.801514,134.915741 971.007568,134.983032 
	C979.169739,135.113602 987.335632,135.009659 996.500000,135.002869 
M690.522522,109.933517 
	C693.946472,98.916878 694.317139,87.640251 692.496521,76.393547 
	C689.682678,59.011906 679.904846,46.595467 664.034973,39.092899 
	C652.881897,33.820210 640.904114,31.309290 628.706482,31.137808 
	C601.054077,30.749048 573.392517,30.989359 545.734741,31.027615 
	C539.750122,31.035892 539.032227,31.735209 539.028809,37.658257 
	C538.998779,89.974838 539.047058,142.291504 538.957581,194.607956 
	C538.949463,199.374329 540.823120,201.101379 545.497986,201.048172 
	C559.491699,200.888885 573.488403,201.020584 587.483887,200.987610 
	C594.442017,200.971222 594.960266,200.462936 594.983276,193.629303 
	C595.027039,180.633591 594.964050,167.637436 595.029419,154.641907 
	C595.059082,148.737503 595.758972,148.070206 601.751709,148.025742 
	C610.581726,147.960205 619.438110,148.419174 628.235657,147.879135 
	C636.491760,147.372314 644.923523,146.741867 652.859253,144.608231 
	C670.893372,139.759445 684.565979,129.460495 690.522522,109.933517 
M368.538818,65.943932 
	C371.855560,68.965843 375.367279,71.801743 378.456848,75.040367 
	C396.058044,93.490829 399.273895,124.728729 386.013123,146.499893 
	C376.062592,162.836441 362.199951,173.651596 343.094635,177.023911 
	C338.749390,177.790894 336.623199,179.803146 336.962280,184.388245 
	C337.207336,187.701614 336.961243,191.048569 337.018982,194.379089 
	C337.121155,200.273270 337.753845,200.956421 343.760437,200.975815 
	C360.251465,201.029037 376.743622,201.106308 393.233551,200.964966 
	C404.206299,200.870926 415.251221,201.137650 426.133728,199.998993 
	C469.286713,195.483856 505.203339,156.066437 499.749481,105.894691 
	C495.334808,65.282379 461.192810,32.854984 420.463623,31.250975 
	C394.517700,30.229164 368.499542,31.060713 342.513885,31.007519 
	C338.786987,30.999891 336.934601,32.543854 337.016113,36.369617 
	C337.094147,40.032337 337.230560,43.714668 336.953064,47.358818 
	C336.607330,51.899014 338.588715,54.000858 342.948792,54.830879 
	C352.036926,56.560986 360.587280,59.716057 368.538818,65.943932 
M174.199265,74.763687 
	C164.846481,92.457512 161.962204,111.185875 165.099701,130.917328 
	C170.763794,166.538055 201.169983,196.981552 237.134811,199.687698 
	C265.301514,201.807037 293.714630,200.651398 322.018250,200.952866 
	C325.298065,200.987793 326.960052,199.411835 326.953979,196.094803 
	C326.946625,192.095825 326.792145,188.085693 327.034851,184.100693 
	C327.302704,179.702805 325.193787,177.811035 321.110596,177.066391 
	C301.671936,173.521515 287.003662,162.814270 277.666443,145.710037 
	C266.631653,125.496124 266.858459,104.791481 278.599182,84.773438 
	C288.219116,68.371414 302.572693,58.293835 321.393341,54.870907 
	C325.265869,54.166607 327.286804,52.269211 327.023987,48.109879 
	C326.824768,44.956734 327.018524,41.780136 326.993408,38.614326 
	C326.936676,31.460476 326.522491,31.018164 319.229553,31.009754 
	C297.067017,30.984192 274.903290,31.140579 252.742111,30.964516 
	C218.532669,30.692728 192.450851,44.928333 174.199265,74.763687 
z"/>
<path fill="#232321" opacity="1.000000" stroke="none" 
	d="
M750.998291,201.002991 
	C740.835999,201.002426 731.173218,201.016373 721.510437,200.996857 
	C713.266418,200.980194 713.010132,200.744171 713.007629,192.625565 
	C712.994690,150.809067 712.999512,108.992577 713.000854,67.176086 
	C713.001160,57.180141 713.122314,47.182484 712.967712,37.189022 
	C712.898254,32.693752 714.725037,30.925936 719.205200,30.967340 
	C733.698059,31.101284 748.194214,31.125053 762.686340,30.954922 
	C767.531311,30.898045 769.099731,32.981159 769.044434,37.580025 
	C768.888245,50.572849 768.983032,63.568897 769.017456,76.563576 
	C769.022522,78.468895 769.237671,80.373650 770.538269,82.646622 
	C771.774902,81.219795 772.992615,79.776047 774.251099,78.368759 
	C787.663818,63.370071 801.029358,48.328213 814.589172,33.463566 
	C815.853333,32.077709 818.351868,31.164782 820.287903,31.146307 
	C838.778625,30.969858 857.271729,31.005962 875.763733,31.085602 
	C877.122375,31.091454 878.477539,31.909666 879.834290,32.350220 
	C879.199097,33.752136 878.877380,35.449333 877.879150,36.509380 
	C869.664368,45.232567 861.331604,53.844723 853.019714,62.476227 
	C843.783508,72.067642 834.634216,81.746361 825.226501,91.166748 
	C822.274048,94.123123 822.251465,96.464462 824.446167,99.821426 
	C839.385071,122.671204 854.191101,145.607956 869.012939,168.534134 
	C874.887268,177.620331 880.730042,186.727478 886.511414,195.873016 
	C888.927246,199.694672 888.338135,200.918900 883.840088,200.938446 
	C864.681763,201.021698 845.519897,201.120789 826.367615,200.765457 
	C823.966553,200.720917 820.706665,198.575455 819.382385,196.446808 
	C807.688538,177.649506 796.348572,158.632141 784.882202,139.693024 
	C783.955872,138.163025 782.867676,136.730988 781.188477,134.281708 
	C776.451660,141.475418 768.172791,144.868591 768.807739,155.146362 
	C769.607422,168.091522 769.030884,181.124069 768.975403,194.118622 
	C768.948975,200.308807 768.285095,200.905777 761.993286,200.987274 
	C758.495300,201.032593 754.996277,201.000305 750.998291,201.002991 
z"/>
<path fill="#232321" opacity="1.000000" stroke="none" 
	d="
M996.000000,135.002869 
	C987.335632,135.009659 979.169739,135.113602 971.007568,134.983032 
	C966.801514,134.915741 964.848755,136.591782 964.990967,140.891373 
	C965.139648,145.385040 964.962646,149.888428 965.027771,154.386139 
	C965.112732,160.261368 965.773865,160.961792 971.781433,160.973511 
	C995.108154,161.018997 1018.434998,160.991898 1041.761841,161.003693 
	C1050.977051,161.008362 1050.986938,161.022888 1050.996704,170.152374 
	C1051.005493,178.316742 1050.876099,186.483307 1051.031738,194.644623 
	C1051.114746,198.995514 1049.585815,201.040253 1044.963867,201.031540 
	C1001.309631,200.949341 957.654968,200.932205 914.000854,201.044357 
	C908.404602,201.058731 907.964722,197.907257 907.970398,193.610687 
	C908.025757,151.455811 908.000244,109.300835 908.000549,67.145889 
	C908.000610,57.148697 908.123291,47.149750 907.966797,37.155102 
	C907.895874,32.630077 909.787170,30.961058 914.237061,30.969465 
	C956.391846,31.049116 998.546814,31.047617 1040.701538,30.969940 
	C1045.098877,30.961840 1047.114258,32.520672 1047.030884,37.096916 
	C1046.863892,46.257919 1046.842773,55.427231 1047.043457,64.586945 
	C1047.147705,69.344673 1045.205078,71.070183 1040.517334,71.044449 
	C1018.024353,70.920952 995.530212,70.984390 973.036499,71.009949 
	C965.421692,71.018608 965.057800,71.403366 965.010559,78.857864 
	C964.989380,82.190071 965.156799,85.529785 964.986877,88.853218 
	C964.754944,93.388985 966.808289,95.061729 971.250732,95.032867 
	C988.911682,94.918121 1006.573853,94.993790 1024.235596,95.000549 
	C1034.994751,95.004662 1034.997925,95.005997 1034.998901,105.625229 
	C1034.999634,113.289749 1034.834473,120.958519 1035.042969,128.617233 
	C1035.173218,133.402054 1033.155640,135.125198 1028.489990,135.047440 
	C1017.829407,134.869751 1007.163635,134.998550 996.000000,135.002869 
z"/>
<path fill="#232321" opacity="1.000000" stroke="none" 
	d="
M690.383423,110.308624 
	C684.565979,129.460495 670.893372,139.759445 652.859253,144.608231 
	C644.923523,146.741867 636.491760,147.372314 628.235657,147.879135 
	C619.438110,148.419174 610.581726,147.960205 601.751709,148.025742 
	C595.758972,148.070206 595.059082,148.737503 595.029419,154.641907 
	C594.964050,167.637436 595.027039,180.633591 594.983276,193.629303 
	C594.960266,200.462936 594.442017,200.971222 587.483887,200.987610 
	C573.488403,201.020584 559.491699,200.888885 545.497986,201.048172 
	C540.823120,201.101379 538.949463,199.374329 538.957581,194.607956 
	C539.047058,142.291504 538.998779,89.974838 539.028809,37.658257 
	C539.032227,31.735209 539.750122,31.035892 545.734741,31.027615 
	C573.392517,30.989359 601.054077,30.749048 628.706482,31.137808 
	C640.904114,31.309290 652.881897,33.820210 664.034973,39.092899 
	C679.904846,46.595467 689.682678,59.011906 692.496521,76.393547 
	C694.317139,87.640251 693.946472,98.916878 690.383423,110.308624 
M637.148682,80.501877 
	C633.811768,78.201988 630.724548,74.535736 627.088745,73.871391 
	C618.020325,72.214355 608.709229,71.834259 599.481079,71.131012 
	C596.365967,70.893616 595.057983,72.937393 595.055603,75.890831 
	C595.048340,84.862175 595.074585,93.833649 595.030396,102.804787 
	C595.013062,106.327530 596.645813,107.993950 600.177734,107.965088 
	C607.154724,107.908066 614.156860,108.291534 621.104614,107.830429 
	C636.089172,106.835915 643.451111,94.645294 637.148682,80.501877 
z"/>
<path fill="#232321" opacity="1.000000" stroke="none" 
	d="
M368.262939,65.716866 
	C360.587280,59.716057 352.036926,56.560986 342.948792,54.830879 
	C338.588715,54.000858 336.607330,51.899014 336.953064,47.358818 
	C337.230560,43.714668 337.094147,40.032337 337.016113,36.369617 
	C336.934601,32.543854 338.786987,30.999891 342.513885,31.007519 
	C368.499542,31.060713 394.517700,30.229164 420.463623,31.250975 
	C461.192810,32.854984 495.334808,65.282379 499.749481,105.894691 
	C505.203339,156.066437 469.286713,195.483856 426.133728,199.998993 
	C415.251221,201.137650 404.206299,200.870926 393.233551,200.964966 
	C376.743622,201.106308 360.251465,201.029037 343.760437,200.975815 
	C337.753845,200.956421 337.121155,200.273270 337.018982,194.379089 
	C336.961243,191.048569 337.207336,187.701614 336.962280,184.388245 
	C336.623199,179.803146 338.749390,177.790894 343.094635,177.023911 
	C362.199951,173.651596 376.062592,162.836441 386.013123,146.499893 
	C399.273895,124.728729 396.058044,93.490829 378.456848,75.040367 
	C375.367279,71.801743 371.855560,68.965843 368.262939,65.716866 
M401.854797,101.821121 
	C402.124512,109.615944 403.586029,117.588562 402.454376,125.174332 
	C397.944855,155.402802 380.310699,174.878845 351.570404,184.722748 
	C349.581604,185.403931 346.637604,187.551910 346.650177,188.995880 
	C346.683380,192.812332 350.382294,191.936111 352.853851,191.945892 
	C373.012146,192.025665 393.171295,192.062439 413.329224,191.947876 
	C418.134460,191.920578 423.009613,191.686584 427.727112,190.844620 
	C450.601868,186.762024 468.674896,175.108902 480.368378,154.934158 
	C494.528595,130.503479 495.526276,105.187019 481.962433,80.177902 
	C468.553711,55.454823 447.226929,41.676579 419.214722,40.253548 
	C396.947723,39.122372 374.576843,39.943043 352.254486,40.151669 
	C350.280792,40.170116 348.324677,42.073895 346.360413,43.102013 
	C347.959045,44.486252 349.336121,46.542404 351.189667,47.153664 
	C377.841400,55.942921 394.854919,73.668098 401.854797,101.821121 
z"/>
<path fill="#232321" opacity="1.000000" stroke="none" 
	d="
M174.389008,74.448547 
	C192.450851,44.928333 218.532669,30.692728 252.742111,30.964516 
	C274.903290,31.140579 297.067017,30.984192 319.229553,31.009754 
	C326.522491,31.018164 326.936676,31.460476 326.993408,38.614326 
	C327.018524,41.780136 326.824768,44.956734 327.023987,48.109879 
	C327.286804,52.269211 325.265869,54.166607 321.393341,54.870907 
	C302.572693,58.293835 288.219116,68.371414 278.599182,84.773438 
	C266.858459,104.791481 266.631653,125.496124 277.666443,145.710037 
	C287.003662,162.814270 301.671936,173.521515 321.110596,177.066391 
	C325.193787,177.811035 327.302704,179.702805 327.034851,184.100693 
	C326.792145,188.085693 326.946625,192.095825 326.953979,196.094803 
	C326.960052,199.411835 325.298065,200.987793 322.018250,200.952866 
	C293.714630,200.651398 265.301514,201.807037 237.134811,199.687698 
	C201.169983,196.981552 170.763794,166.538055 165.099701,130.917328 
	C161.962204,111.185875 164.846481,92.457512 174.389008,74.448547 
M317.631012,187.877579 
	C315.964111,186.716507 314.455505,185.040359 312.606415,184.472092 
	C287.366943,176.714951 270.999786,160.176788 263.547974,134.932114 
	C254.179672,103.194931 269.676178,67.672478 299.290466,52.935806 
	C304.030823,50.576881 309.221375,49.134686 314.039215,46.911968 
	C315.525208,46.226414 316.465210,44.357403 317.655212,43.030277 
	C316.159943,42.038368 314.774231,40.744930 313.134979,40.149204 
	C311.804871,39.665836 310.170319,40.005749 308.670776,40.005482 
	C289.007507,40.001987 269.342468,40.172577 249.681335,39.968407 
	C204.987579,39.504303 172.100922,77.528000 172.852188,116.677406 
	C173.559357,153.529388 200.572647,186.891968 237.154419,190.582336 
	C262.397186,193.128830 288.048798,191.673065 313.518646,191.781738 
	C314.904877,191.787643 316.299988,189.725220 317.631012,187.877579 
z"/>
<path fill="#000000" opacity="1.000000" stroke="none" 
	d="
M637.335876,80.826462 
	C643.451111,94.645294 636.089172,106.835915 621.104614,107.830429 
	C614.156860,108.291534 607.154724,107.908066 600.177734,107.965088 
	C596.645813,107.993950 595.013062,106.327530 595.030396,102.804787 
	C595.074585,93.833649 595.048340,84.862175 595.055603,75.890831 
	C595.057983,72.937393 596.365967,70.893616 599.481079,71.131012 
	C608.709229,71.834259 618.020325,72.214355 627.088745,73.871391 
	C630.724548,74.535736 633.811768,78.201988 637.335876,80.826462 
z"/>
<path fill="#000000" opacity="1.000000" stroke="none" 
	d="
M401.784851,101.400772 
	C394.854919,73.668098 377.841400,55.942921 351.189667,47.153664 
	C349.336121,46.542404 347.959045,44.486252 346.360413,43.102016 
	C348.324677,42.073895 350.280792,40.170116 352.254486,40.151669 
	C374.576843,39.943043 396.947723,39.122372 419.214722,40.253548 
	C447.226929,41.676579 468.553711,55.454823 481.962433,80.177902 
	C495.526276,105.187019 494.528595,130.503479 480.368378,154.934158 
	C468.674896,175.108902 450.601868,186.762024 427.727112,190.844620 
	C423.009613,191.686584 418.134460,191.920578 413.329224,191.947876 
	C393.171295,192.062439 373.012146,192.025665 352.853851,191.945892 
	C350.382294,191.936111 346.683380,192.812332 346.650177,188.995880 
	C346.637604,187.551910 349.581604,185.403931 351.570404,184.722748 
	C380.310699,174.878845 397.944855,155.402802 402.454376,125.174332 
	C403.586029,117.588562 402.124512,109.615944 401.784851,101.400772 
z"/>
<path fill="#000000" opacity="1.000000" stroke="none" 
	d="
M317.660980,188.251587 
	C316.299988,189.725220 314.904877,191.787643 313.518646,191.781738 
	C288.048798,191.673065 262.397186,193.128830 237.154419,190.582336 
	C200.572647,186.891968 173.559357,153.529388 172.852188,116.677406 
	C172.100922,77.528000 204.987579,39.504303 249.681335,39.968407 
	C269.342468,40.172577 289.007507,40.001987 308.670776,40.005482 
	C310.170319,40.005749 311.804871,39.665836 313.134979,40.149204 
	C314.774231,40.744930 316.159943,42.038368 317.655212,43.030270 
	C316.465210,44.357403 315.525208,46.226414 314.039215,46.911968 
	C309.221375,49.134686 304.030823,50.576881 299.290466,52.935806 
	C269.676178,67.672478 254.179672,103.194931 263.547974,134.932114 
	C270.999786,160.176788 287.366943,176.714951 312.606415,184.472092 
	C314.455505,185.040359 315.964111,186.716507 317.660980,188.251587 
z"/>
</svg>