<svg version="1.1" id="Layer_1" xmlns="http://www.w3.org/2000/svg" xmlns:xlink="http://www.w3.org/1999/xlink" x="0px" y="0px"
	 width="100%" viewBox="0 0 1212 233" enable-background="new 0 0 1212 233" xml:space="preserve">
<path fill="#000000" opacity="1.000000" stroke="none" 
	d="
M900.000000,234.000000 
	C600.000000,234.000000 300.500000,234.000000 1.000000,234.000000 
	C1.000000,156.333328 1.000000,78.666664 1.000000,1.000000 
	C405.000000,1.000000 809.000000,1.000000 1213.000000,1.000000 
	C1213.000000,78.666664 1213.000000,156.333328 1213.000000,234.000000 
	C1108.833374,234.000000 1004.666687,234.000000 900.000000,234.000000 
M720.560486,203.000000 
	C736.651306,203.000000 752.742126,203.000000 769.000000,203.000000 
	C769.000000,188.732239 769.375732,175.068192 768.855774,161.438309 
	C768.554932,153.551361 769.266846,146.681137 776.476013,141.996002 
	C777.122253,141.576019 777.510803,140.746033 777.990723,140.085876 
	C780.198425,137.048935 782.143433,137.145035 784.066528,140.354156 
	C796.052368,160.355194 807.980225,180.392014 820.174255,200.265366 
	C821.101685,201.776764 823.925293,202.843018 825.891479,202.881210 
	C838.052734,203.117554 850.220825,203.000000 862.386658,203.000000 
	C871.171997,203.000000 879.957336,203.000000 889.208008,203.000000 
	C888.621094,201.514633 888.372925,200.416016 887.804382,199.520874 
	C882.365295,190.957382 876.906616,182.405899 871.387817,173.893600 
	C855.354858,149.164139 839.259033,124.475227 823.348389,99.667488 
	C822.646667,98.573318 822.888550,95.874832 823.770020,94.920395 
	C831.752808,86.277390 839.922668,77.804382 848.145691,69.386986 
	C855.016235,62.354019 862.122070,55.549824 868.951355,48.477940 
	C873.672058,43.589603 878.099487,38.417969 882.994873,33.000042 
	C861.268738,33.000042 840.127991,32.964840 818.988037,33.078358 
	C817.561462,33.086018 815.729431,33.841007 814.782593,34.882042 
	C807.054260,43.379307 799.464539,52.003498 791.890015,60.639484 
	C788.007935,65.065605 784.328552,69.671082 780.400269,74.054581 
	C776.990723,77.859306 773.359680,81.465439 768.908081,86.119499 
	C768.908081,67.553413 768.908081,50.358978 768.908081,33.311600 
	C749.976074,33.311600 731.570679,33.311600 713.312195,33.311600 
	C713.312195,90.026077 713.312195,146.428497 713.312195,203.000000 
	C715.607849,203.000000 717.592346,203.000000 720.560486,203.000000 
M1016.500000,73.000000 
	C1026.597290,73.000000 1036.694580,73.000000 1046.710449,73.000000 
	C1046.710449,59.352051 1046.710449,46.280678 1046.710449,33.285912 
	C1000.353699,33.285912 954.286987,33.285912 908.280579,33.285912 
	C908.280579,89.971100 908.280579,146.369934 908.280579,202.723175 
	C955.961609,202.723175 1003.361511,202.723175 1050.720947,202.723175 
	C1050.720947,189.373352 1050.720947,176.302231 1050.720947,162.839355 
	C1022.039978,162.839355 993.635742,162.839355 965.281372,162.839355 
	C965.281372,154.034821 965.281372,145.629349 965.281372,136.833527 
	C988.632324,136.833527 1011.704346,136.833527 1034.716064,136.833527 
	C1034.716064,123.363190 1034.716064,110.291954 1034.716064,96.828430 
	C1011.362427,96.828430 988.290405,96.828430 965.287476,96.828430 
	C965.287476,88.688911 965.287476,80.949478 965.287476,73.000000 
	C982.216003,73.000000 998.857971,73.000000 1016.500000,73.000000 
M692.050598,77.396408 
	C691.364563,67.924126 686.807312,60.127815 680.718567,53.340805 
	C667.155212,38.221916 648.702698,33.871632 629.729431,33.249058 
	C600.773010,32.298901 571.762451,32.996124 542.774841,33.013203 
	C541.524536,33.013939 540.274292,33.207748 539.346802,33.284805 
	C539.346802,90.126129 539.346802,146.514374 539.346802,202.657196 
	C558.096191,202.657196 576.497742,202.657196 595.285278,202.657196 
	C595.285278,184.912277 595.285278,167.508591 595.285278,150.000000 
	C600.501587,150.000000 605.325623,150.046448 610.148438,149.991241 
	C624.264404,149.829666 638.507446,151.201920 652.316528,146.981888 
	C670.287537,141.489975 684.330566,131.939240 690.200989,112.669487 
	C693.707214,101.160210 693.817688,89.755386 692.050598,77.396408 
M460.471527,190.017761 
	C468.839081,184.730988 475.999786,178.207474 482.197662,170.415909 
	C498.706726,149.661758 503.302612,125.905609 498.588409,100.592644 
	C494.724152,79.843315 483.532043,62.822887 466.482788,50.028168 
	C452.137207,39.262417 435.910583,33.334232 417.994965,33.088142 
	C392.672028,32.740299 367.340729,33.000000 342.013000,33.000000 
	C340.414307,33.000000 338.815643,33.000000 337.238037,33.000000 
	C337.238037,41.006233 337.238037,48.442524 337.238037,55.775074 
	C353.120575,57.857296 366.409454,64.246788 377.450287,75.792633 
	C388.757935,87.617554 393.270874,101.782326 394.003418,117.632584 
	C394.593750,130.406754 390.874023,142.099625 383.763031,152.371704 
	C372.530060,168.598099 356.837189,178.178223 337.201752,180.132324 
	C337.201752,188.056015 337.201752,195.335785 337.201752,202.709625 
	C337.845123,202.827606 338.305267,202.985626 338.765442,202.985840 
	C366.092712,202.998779 393.420197,203.047546 420.747040,202.937698 
	C424.132965,202.924103 427.524261,202.115906 430.897980,201.580826 
	C441.342743,199.924301 450.856415,195.788773 460.471527,190.017761 
M271.001892,105.723137 
	C271.333496,104.650131 271.713104,103.589333 271.989441,102.502274 
	C276.108734,86.297531 285.398438,73.574142 299.675354,65.314911 
	C307.944580,60.531139 317.500458,57.971424 326.661011,54.337948 
	C326.661011,47.909508 326.661011,40.505196 326.661011,33.999836 
	C296.595734,33.999836 266.857086,33.415897 237.156219,34.222500 
	C219.803421,34.693760 204.994583,43.171806 192.187683,54.462330 
	C178.199265,66.794472 169.243607,82.267899 165.590439,100.757584 
	C162.972336,114.008560 163.215469,127.147133 166.645721,140.118668 
	C171.572327,158.748688 181.798050,174.043549 197.212051,185.654266 
	C211.509048,196.423584 227.660416,202.662231 245.621094,202.911194 
	C270.935516,203.262070 296.258423,203.000000 321.577728,203.000000 
	C323.334259,203.000000 325.090759,203.000000 326.871857,203.000000 
	C326.871857,195.072296 326.871857,187.775818 326.871857,180.232864 
	C314.945251,178.343689 303.925476,174.638885 294.207123,167.102509 
	C276.083344,153.047897 266.371185,129.390930 271.001892,105.723137 
z"/>
<path fill="#FFFFFF" opacity="1.000000" stroke="none" 
	d="
M720.068604,203.000000 
	C717.592346,203.000000 715.607849,203.000000 713.312195,203.000000 
	C713.312195,146.428497 713.312195,90.026077 713.312195,33.311600 
	C731.570679,33.311600 749.976074,33.311600 768.908081,33.311600 
	C768.908081,50.358978 768.908081,67.553413 768.908081,86.119499 
	C773.359680,81.465439 776.990723,77.859306 780.400269,74.054581 
	C784.328552,69.671082 788.007935,65.065605 791.890015,60.639484 
	C799.464539,52.003498 807.054260,43.379307 814.782593,34.882042 
	C815.729431,33.841007 817.561462,33.086018 818.988037,33.078358 
	C840.127991,32.964840 861.268738,33.000042 882.994873,33.000042 
	C878.099487,38.417969 873.672058,43.589603 868.951355,48.477940 
	C862.122070,55.549824 855.016235,62.354019 848.145691,69.386986 
	C839.922668,77.804382 831.752808,86.277390 823.770020,94.920395 
	C822.888550,95.874832 822.646667,98.573318 823.348389,99.667488 
	C839.259033,124.475227 855.354858,149.164139 871.387817,173.893600 
	C876.906616,182.405899 882.365295,190.957382 887.804382,199.520874 
	C888.372925,200.416016 888.621094,201.514633 889.208008,203.000000 
	C879.957336,203.000000 871.171997,203.000000 862.386658,203.000000 
	C850.220825,203.000000 838.052734,203.117554 825.891479,202.881210 
	C823.925293,202.843018 821.101685,201.776764 820.174255,200.265366 
	C807.980225,180.392014 796.052368,160.355194 784.066528,140.354156 
	C782.143433,137.145035 780.198425,137.048935 777.990723,140.085876 
	C777.510803,140.746033 777.122253,141.576019 776.476013,141.996002 
	C769.266846,146.681137 768.554932,153.551361 768.855774,161.438309 
	C769.375732,175.068192 769.000000,188.732239 769.000000,203.000000 
	C752.742126,203.000000 736.651306,203.000000 720.068604,203.000000 
z"/>
<path fill="#FFFFFF" opacity="1.000000" stroke="none" 
	d="
M1016.000000,73.000000 
	C998.857971,73.000000 982.216003,73.000000 965.287476,73.000000 
	C965.287476,80.949478 965.287476,88.688911 965.287476,96.828430 
	C988.290405,96.828430 1011.362427,96.828430 1034.716064,96.828430 
	C1034.716064,110.291954 1034.716064,123.363190 1034.716064,136.833527 
	C1011.704346,136.833527 988.632324,136.833527 965.281372,136.833527 
	C965.281372,145.629349 965.281372,154.034821 965.281372,162.839355 
	C993.635742,162.839355 1022.039978,162.839355 1050.720947,162.839355 
	C1050.720947,176.302231 1050.720947,189.373352 1050.720947,202.723175 
	C1003.361511,202.723175 955.961609,202.723175 908.280579,202.723175 
	C908.280579,146.369934 908.280579,89.971100 908.280579,33.285912 
	C954.286987,33.285912 1000.353699,33.285912 1046.710449,33.285912 
	C1046.710449,46.280678 1046.710449,59.352051 1046.710449,73.000000 
	C1036.694580,73.000000 1026.597290,73.000000 1016.000000,73.000000 
z"/>
<path fill="#FFFFFF" opacity="1.000000" stroke="none" 
	d="
M692.332642,77.744308 
	C693.817688,89.755386 693.707214,101.160210 690.200989,112.669487 
	C684.330566,131.939240 670.287537,141.489975 652.316528,146.981888 
	C638.507446,151.201920 624.264404,149.829666 610.148438,149.991241 
	C605.325623,150.046448 600.501587,150.000000 595.285278,150.000000 
	C595.285278,167.508591 595.285278,184.912277 595.285278,202.657196 
	C576.497742,202.657196 558.096191,202.657196 539.346802,202.657196 
	C539.346802,146.514374 539.346802,90.126129 539.346802,33.284805 
	C540.274292,33.207748 541.524536,33.013939 542.774841,33.013203 
	C571.762451,32.996124 600.773010,32.298901 629.729431,33.249058 
	C648.702698,33.871632 667.155212,38.221916 680.718567,53.340805 
	C686.807312,60.127815 691.364563,67.924126 692.332642,77.744308 
M595.000000,92.499168 
	C595.000000,98.254662 595.000000,104.010147 595.000000,110.487617 
	C605.744263,109.973473 615.963074,109.927856 626.071472,108.848793 
	C633.103943,108.098076 638.432434,101.980980 638.999146,95.880730 
	C640.020874,84.881157 637.403564,78.871941 629.471069,76.263397 
	C618.330383,72.599854 606.770142,72.572784 595.000000,73.228767 
	C595.000000,79.566147 595.000000,85.533073 595.000000,92.499168 
z"/>
<path fill="#FFFFFF" opacity="1.000000" stroke="none" 
	d="
M460.211426,190.289246 
	C450.856415,195.788773 441.342743,199.924301 430.897980,201.580826 
	C427.524261,202.115906 424.132965,202.924103 420.747040,202.937698 
	C393.420197,203.047546 366.092712,202.998779 338.765442,202.985840 
	C338.305267,202.985626 337.845123,202.827606 337.201752,202.709625 
	C337.201752,195.335785 337.201752,188.056015 337.201752,180.132324 
	C356.837189,178.178223 372.530060,168.598099 383.763031,152.371704 
	C390.874023,142.099625 394.593750,130.406754 394.003418,117.632584 
	C393.270874,101.782326 388.757935,87.617554 377.450287,75.792633 
	C366.409454,64.246788 353.120575,57.857296 337.238037,55.775074 
	C337.238037,48.442524 337.238037,41.006233 337.238037,33.000000 
	C338.815643,33.000000 340.414307,33.000000 342.013000,33.000000 
	C367.340729,33.000000 392.672028,32.740299 417.994965,33.088142 
	C435.910583,33.334232 452.137207,39.262417 466.482788,50.028168 
	C483.532043,62.822887 494.724152,79.843315 498.588409,100.592644 
	C503.302612,125.905609 498.706726,149.661758 482.197662,170.415909 
	C475.999786,178.207474 468.839081,184.730988 460.211426,190.289246 
M363.361450,54.032368 
	C373.848572,59.124107 382.430450,66.504074 389.334778,75.843201 
	C402.288361,93.364845 406.002045,113.028625 401.356476,133.996078 
	C398.398438,147.347183 391.699158,158.627701 381.585876,168.597473 
	C372.577423,177.478088 362.359436,183.147736 350.847321,186.711197 
	C346.316895,188.113525 345.348389,189.649872 346.361298,194.000000 
	C347.923035,194.000000 349.554810,194.000000 351.186584,194.000000 
	C372.171570,194.000000 393.158447,194.159393 414.140381,193.906921 
	C420.799469,193.826813 427.711456,193.595932 434.052246,191.813568 
	C465.434357,182.992203 487.007019,158.300888 490.792786,126.874321 
	C493.069824,107.972130 488.724915,90.202988 477.139343,74.352692 
	C461.771637,53.327980 441.311462,42.469963 415.450500,42.068298 
	C393.971069,41.734684 372.482330,42.000000 350.997711,42.000000 
	C349.376038,42.000000 347.754364,42.000000 346.257446,42.000000 
	C345.402618,46.504803 346.211975,48.654385 351.090240,49.260338 
	C355.056610,49.753025 358.765778,52.316154 363.361450,54.032368 
z"/>
<path fill="#FFFFFF" opacity="1.000000" stroke="none" 
	d="
M271.000854,106.166153 
	C266.371185,129.390930 276.083344,153.047897 294.207123,167.102509 
	C303.925476,174.638885 314.945251,178.343689 326.871857,180.232864 
	C326.871857,187.775818 326.871857,195.072296 326.871857,203.000000 
	C325.090759,203.000000 323.334259,203.000000 321.577728,203.000000 
	C296.258423,203.000000 270.935516,203.262070 245.621094,202.911194 
	C227.660416,202.662231 211.509048,196.423584 197.212051,185.654266 
	C181.798050,174.043549 171.572327,158.748688 166.645721,140.118668 
	C163.215469,127.147133 162.972336,114.008560 165.590439,100.757584 
	C169.243607,82.267899 178.199265,66.794472 192.187683,54.462330 
	C204.994583,43.171806 219.803421,34.693760 237.156219,34.222500 
	C266.857086,33.415897 296.595734,33.999836 326.661011,33.999836 
	C326.661011,40.505196 326.661011,47.909508 326.661011,54.337948 
	C317.500458,57.971424 307.944580,60.531139 299.675354,65.314911 
	C285.398438,73.574142 276.108734,86.297531 271.989441,102.502274 
	C271.713104,103.589333 271.333496,104.650131 271.000854,106.166153 
M187.435059,73.050606 
	C187.273788,73.507721 187.205536,74.029869 186.937943,74.412643 
	C171.578033,96.383057 168.680984,119.936348 177.982620,145.021973 
	C188.722229,173.985718 216.640213,193.562485 247.012680,193.947723 
	C268.341675,194.218262 289.676910,194.000000 311.009338,194.000000 
	C313.300537,194.000000 315.591705,194.000000 317.858276,194.000000 
	C318.084351,187.775375 318.081421,187.786880 314.995422,186.998505 
	C296.232208,182.205109 281.702454,171.824005 271.513519,155.134781 
	C259.932648,136.165588 257.539093,115.862907 264.555389,95.333992 
	C273.072235,70.414581 290.983032,54.570683 316.844421,48.318413 
	C316.844421,46.341778 316.844421,44.389030 316.844421,42.137413 
	C315.745483,42.087414 314.786285,42.005955 313.827057,42.005665 
	C290.494690,41.998535 267.160309,41.837078 243.831589,42.128017 
	C238.744537,42.191463 233.597153,43.569561 228.616302,44.872559 
	C211.824158,49.265388 198.482086,58.860622 187.435059,73.050606 
z"/>
<path fill="#000000" opacity="1.000000" stroke="none" 
	d="
M595.000000,91.999588 
	C595.000000,85.533073 595.000000,79.566147 595.000000,73.228767 
	C606.770142,72.572784 618.330383,72.599854 629.471069,76.263397 
	C637.403564,78.871941 640.020874,84.881157 638.999146,95.880730 
	C638.432434,101.980980 633.103943,108.098076 626.071472,108.848793 
	C615.963074,109.927856 605.744263,109.973473 595.000000,110.487617 
	C595.000000,104.010147 595.000000,98.254662 595.000000,91.999588 
z"/>
<path fill="#000000" opacity="1.000000" stroke="none" 
	d="
M362.975220,53.996742 
	C358.765778,52.316154 355.056610,49.753025 351.090240,49.260338 
	C346.211975,48.654385 345.402618,46.504803 346.257446,42.000000 
	C347.754364,42.000000 349.376038,42.000000 350.997711,42.000000 
	C372.482330,42.000000 393.971069,41.734684 415.450500,42.068298 
	C441.311462,42.469963 461.771637,53.327980 477.139343,74.352692 
	C488.724915,90.202988 493.069824,107.972130 490.792786,126.874321 
	C487.007019,158.300888 465.434357,182.992203 434.052246,191.813568 
	C427.711456,193.595932 420.799469,193.826813 414.140381,193.906921 
	C393.158447,194.159393 372.171570,194.000000 351.186584,194.000000 
	C349.554810,194.000000 347.923035,194.000000 346.361298,194.000000 
	C345.348389,189.649872 346.316895,188.113525 350.847321,186.711197 
	C362.359436,183.147736 372.577423,177.478088 381.585876,168.597473 
	C391.699158,158.627701 398.398438,147.347183 401.356476,133.996078 
	C406.002045,113.028625 402.288361,93.364845 389.334778,75.843201 
	C382.430450,66.504074 373.848572,59.124107 362.975220,53.996742 
z"/>
<path fill="#000000" opacity="1.000000" stroke="none" 
	d="
M187.702881,72.798798 
	C198.482086,58.860622 211.824158,49.265388 228.616302,44.872559 
	C233.597153,43.569561 238.744537,42.191463 243.831589,42.128017 
	C267.160309,41.837078 290.494690,41.998535 313.827057,42.005665 
	C314.786285,42.005955 315.745483,42.087414 316.844421,42.137413 
	C316.844421,44.389030 316.844421,46.341778 316.844421,48.318413 
	C290.983032,54.570683 273.072235,70.414581 264.555389,95.333992 
	C257.539093,115.862907 259.932648,136.165588 271.513519,155.134781 
	C281.702454,171.824005 296.232208,182.205109 314.995422,186.998505 
	C318.081421,187.786880 318.084351,187.775375 317.858276,194.000000 
	C315.591705,194.000000 313.300537,194.000000 311.009338,194.000000 
	C289.676910,194.000000 268.341675,194.218262 247.012680,193.947723 
	C216.640213,193.562485 188.722229,173.985718 177.982620,145.021973 
	C168.680984,119.936348 171.578033,96.383057 186.937943,74.412643 
	C187.205536,74.029869 187.273788,73.507721 187.702881,72.798798 
z"/>
</svg>